<svg width="80" height="70" fill="none" xmlns="http://www.w3.org/2000/svg"><path d="M79.248 33.806c-.734-3.983-2.134-7.735-4.05-11.354a.624.624 0 0 1 .133-.744c.3-.248.566-.496.833-.76 1.717-1.62 2.967-3.537 3.35-5.868.717-4.247-.783-7.867-3.516-11.023-2.284-2.628-5.134-4.264-8.75-4.016-3.767.264-6.584 2.313-8.834 5.173-.45.562-.767.628-1.367.33C52.831 3.61 48.38 2.62 43.78 2.24c-7.283-.579-14.3.413-21.033 3.355-.234.099-.684-.05-.884-.232-1.05-.975-1.933-2.115-3.066-2.975C16.413.57 13.713-.423 10.663.173c-4.117.81-6.817 3.437-8.7 6.99-2.817 5.24-1.9 10.38 2.533 14.247.534.463.467.794.184 1.323A40.105 40.105 0 0 0 .03 39.888c-.4 9.239 3.25 16.544 10.716 21.981 6.3 4.595 13.567 6.677 21.218 7.636 5.8.71 11.666.661 17.45-.182 6.017-.876 11.75-2.545 17.033-5.602 4.984-2.91 8.95-6.777 11.384-12.065 2.667-5.802 2.533-11.801 1.417-17.85z" fill="url(#a)"/><path d="M48 35.768c1.333.77 1.333 2.694 0 3.464l-11.25 6.495c-1.333.77-3-.192-3-1.732v-12.99c0-1.54 1.667-2.502 3-1.732L48 35.768z" fill="#fff"/><circle cx="40" cy="37" r="18" stroke="#fff" stroke-width="2"/><defs><linearGradient id="a" x1="7.296" y1="6.125" x2="82.77" y2="10.555" gradientUnits="userSpaceOnUse"><stop stop-color="#98C454"/><stop offset="1" stop-color="#49B661"/></linearGradient></defs></svg>